Coordinates
version=1
nRows=16
nColumns=33
inDegrees=yes

Units are S.I. units (second, meters, Newtons, ...)
Angles are in degrees.

endheader
time	ground_thorax_rot_x	ground_thorax_rot_y	ground_thorax_rot_z	ground_thorax_tx	ground_thorax_ty	ground_thorax_tz	clav_prot_r	clav_elev_r	scapula_abduction_r	scapula_elevation_r	scapula_upward_rot_r	scapula_winging_r	shoulder_elv_r	plane_of_elev_r	axial_rot_r	elbow_flexion_r	pro_sup_r	wrist_flex_r	wrist_dev_r	clav_prot_l	clav_elev_l	scapula_abduction_l	scapula_elevation_l	scapula_upward_rot_l	scapula_winging_l	shoulder_elv_l	plane_of_elev_l	axial_rot_l	elbow_flexion_l	pro_sup_l	wrist_flex_l	wrist_dev_l
      1.75000000	      1.33787098	      0.22101499	     -0.26346650	     -0.15557945	      0.98618731	      0.00374542	     -4.55972494	     -5.03830869	     -4.91953081	      3.08964056	     -1.24909172	      0.56359889	     41.73500008	    -26.98878385	     13.70977835	     76.79764220	     -2.80987072	     -9.68905111	      3.98127096	     -5.40165595	     -3.25888322	      5.87539361	     -4.01348416	     -2.55836246	     -1.23059911	     40.40709537	    -24.36718319	    -11.84759953	     75.39363174	      9.11226811	      8.72584034	     12.87313699
      1.76000000	      1.27692148	      0.28300567	     -0.22707438	     -0.15603168	      0.98602160	      0.00345258	     -4.12915551	     -5.71518862	     -4.34284720	      2.78724621	     -2.03065486	      0.72938733	     42.02048430	    -24.91368359	     12.11059666	     74.30298873	     -3.16035166	    -11.61218785	      5.39306585	     -4.91660717	     -3.91477406	      5.02990278	     -3.59429115	     -2.99988422	     -1.26874630	     40.85866539	    -22.63294415	    -11.32735566	     73.39376477	      8.91211813	      9.87640016	     14.74011891
      1.77000000	      1.25460570	      0.32039270	     -0.28367856	     -0.15598424	      0.98650035	      0.00308811	     -3.92106687	     -6.69846850	     -3.83307244	      1.91842922	     -2.12080937	      0.89623475	     42.00285000	    -23.46445213	     10.92207929	     71.42157276	     -3.29409104	    -12.47378983	      5.79525852	     -4.65454598	     -4.85389660	      4.37635422	     -2.75319205	     -3.05005622	     -1.35844053	     41.01231015	    -21.25837314	    -10.79606997	     70.98494490	      8.97906949	     10.20673840	     15.52026048
      1.78000000	      1.21399328	      0.46615769	      0.15561763	     -0.15690958	      0.98546574	      0.00287371	     -3.33170953	     -6.72613145	     -3.14747417	      2.27029657	     -3.02601884	      0.87071558	     41.93393124	    -20.89867727	      8.96725160	     68.05046567	     -4.15521511	    -14.55678997	      7.78346605	     -3.90774690	     -4.98755058	      3.28830864	     -2.92049716	     -3.73848730	     -1.24346799	     41.31810392	    -18.96546238	    -10.27396376	     68.14389615	      8.80483152	     11.70507444	     17.39341769
      1.79000000	      1.21478909	      0.51309108	      0.02578874	     -0.15694121	      0.98593843	      0.00255345	     -3.02953053	     -7.77055150	     -2.47485249	      1.33403090	     -3.08567534	      1.02669295	     42.11684005	    -19.42329046	      7.85139587	     64.61641710	     -4.27545021	    -15.41932922	      8.29844420	     -3.54546813	     -6.02454190	      2.47637520	     -2.00345555	     -3.81682828	     -1.33961091	     41.55474078	    -17.55893180	     -9.70373804	     65.26430555	      8.94332730	     12.14120050	     18.13176524
      1.80000000	      1.21531346	      0.63950809	      0.53195590	     -0.15781692	      0.98505641	      0.00234065	     -2.45186077	     -7.82986281	     -1.77801257	      1.63855218	     -3.94394227	      0.97709679	     42.25656790	    -16.87803701	      6.16329322	     60.59954877	     -5.11588576	    -17.00165573	     10.31271151	     -2.79733235	     -6.23253893	      1.38775578	     -2.11461765	     -4.53603183	     -1.22256978	     41.79015385	    -15.29726898	     -9.01712214	     61.81249486	      8.92025234	     13.68275443	     19.34019782
      1.81000000	      1.24958467	      0.72657440	      0.71537707	     -0.15830983	      0.98494054	      0.00218286	     -1.98704922	     -8.40438273	     -1.08959488	      1.34063756	     -4.49701478	      1.04782637	     42.70668583	    -14.78439219	      4.98285425	     56.47612224	     -5.48636880	    -17.97716669	     11.72404635	     -2.19009783	     -6.91948304	      0.36629255	     -1.67114456	     -4.97790707	     -1.21436111	     42.09331863	    -13.51123836	     -8.30326378	     58.30180514	      9.08962565	     14.88243003	     19.88132356
      1.82000000	      1.25405109	      0.80881789	      0.52069648	     -0.15842197	      0.98519534	      0.00195808	     -1.59939799	     -9.27222105	     -0.26731413	      0.50317693	     -4.39216575	      1.10473875	     42.95852228	    -13.24026189	      4.18061334	     52.32229649	     -5.60945125	    -18.56153610	     12.20929702	     -1.70975131	     -7.82366154	     -0.62785948	     -0.83665737	     -4.94598188	     -1.22502786	     42.35369887	    -12.07060755	     -7.92559931	     54.82663064	      9.30649909	     15.35948916	     20.15773136
      1.83000000	      1.29909370	      0.88646968	      0.97183641	     -0.15900644	      0.98451715	      0.00186520	     -1.14033097	     -9.25207509	      0.39510962	      0.68650175	     -4.77302340	      0.95637565	     42.99001315	    -10.85070718	      3.09980553	     47.52933541	     -6.37965720	    -18.96524460	     13.61895757	     -1.04146510	     -8.05327857	     -1.65522445	     -0.83430361	     -5.43306072	     -1.06612245	     42.37936139	    -10.02394133	     -7.15575685	     50.72902363	      9.32026010	     16.48722928	     19.86869634
      1.84000000	      1.32589252	      0.96143057	      1.09973519	     -0.15926424	      0.98447096	      0.00183102	     -0.72419840	     -9.64160387	      1.11797927	      0.38530513	     -4.89612024	      0.90299932	     43.19702692	     -8.91956184	      2.37739856	     42.83928424	     -6.82286423	    -19.05820669	     14.43975998	     -0.45025766	     -8.63389969	     -2.67851178	     -0.40833163	     -5.67071471	     -0.98911828	     42.58256199	     -8.43334859	     -6.47975404	     46.88930022	      9.49685045	     17.27804659	     19.34300736
      1.85000000	      1.37435332	      1.02481023	      1.26853941	     -0.15951257	      0.98421384	      0.00183588	     -0.32308555	     -9.79843918	      1.82155777	      0.26391532	     -4.93164275	      0.75909667	     43.29996196	     -6.92433368	      1.86064863	     38.13049512	     -7.34664439	    -18.81832302	     15.12209023	      0.17372673	     -9.05723496	     -3.73163453	     -0.13048155	     -5.91407322	     -0.84290161	     42.73430272	     -6.83469115	     -5.86525611	     43.05262747	      9.72558911	     17.99758819	     18.45579778
      1.86000000	      1.42482494	      1.07083436	      1.39257760	     -0.15957299	      0.98406550	      0.00189196	      0.03068833	     -9.91890572	      2.47601753	      0.13223374	     -4.86125926	      0.60719428	     43.32480552	     -5.03179915	      1.52072977	     33.50822965	     -7.88927111	    -18.32150855	     15.49678729	      0.76609295	     -9.43807068	     -4.73679797	      0.12796576	     -6.10845227	     -0.68304995	     42.86498448	     -5.36260555	     -5.22418714	     39.43791944	     10.04954464	     18.51926454	     17.37128726
      1.87000000	      1.58261894	      1.22622057	      1.54721834	     -0.15971773	      0.98375431	      0.00197522	      0.37483955	     -9.73266712	      3.05728524	      0.31492268	     -4.86915992	      0.36702561	     43.45463880	     -3.10261095	      1.67866556	     29.20712568	     -8.71170361	    -17.19339070	     15.56330890	      1.49015177	     -9.74599174	     -5.94127389	      0.29763891	     -6.35015715	     -0.42925723	     42.96806810	     -3.90367212	     -4.75658238	     35.93385874	     10.76323220	     19.02928994	     15.71738990
      1.88000000	      1.44172719	      1.18102077	      1.46038343	     -0.15928343	      0.98445137	      0.00212191	      0.66092015	    -10.31874100	      3.74435235	     -0.37101461	     -4.49009788	      0.33324778	     43.34245693	     -2.10591017	      1.68365398	     25.64132154	     -8.76012884	    -17.37623924	     15.35570750	      1.84724121	    -10.22268195	     -6.67193463	      0.80288487	     -6.15679264	     -0.35726763	     43.24896541	     -3.24535367	     -4.57646926	     33.41890164	     11.11935618	     19.05847303	     15.64060740
      1.89000000	      1.53750848	      1.17923158	      1.76394454	     -0.15894109	      0.98383224	      0.00231496	      0.79933816	     -9.72597179	      4.04598566	      0.05865846	     -4.19420483	      0.00294009	     42.75327955	     -0.14028622	      1.87846859	     21.64783552	     -9.68379780	    -16.31280268	     14.98515815	      2.30722973	     -9.97366041	     -7.34182293	      0.44293323	     -6.46320291	     -0.05718163	     42.97477057	     -1.69859793	     -3.74112160	     30.81145930	     11.55466929	     18.94170771	     14.43863763
      1.90000000	      1.54502080	      1.25285330	      1.86624502	     -0.15850283	      0.98486956	      0.00238810	      1.06391899	    -10.09968292	      4.62792614	     -0.37539098	     -3.95339312	     -0.06118881	     42.77903362	      0.26647420	      2.12568049	     19.38948277	     -9.61681745	    -16.48474769	     14.74781021	      2.63510543	    -10.41935556	     -7.98686547	      0.89237239	     -6.33859191	     -0.00009451	     43.09468598	     -1.38901724	     -4.02222269	     29.01909657	     11.91035467	     18.94187185	     14.57085366
